<?xml version="1.0" standalone="no"?>
<!DOCTYPE svg PUBLIC "-//W3C//DTD SVG 20010904//EN"
 "http://www.w3.org/TR/2001/REC-SVG-20010904/DTD/svg10.dtd">
<svg version="1.0" xmlns="http://www.w3.org/2000/svg"
 width="224.000000pt" height="57.000000pt" viewBox="0 0 224.000000 57.000000"
 preserveAspectRatio="xMidYMid meet">

<g transform="translate(0.000000,57.000000) scale(0.100000,-0.100000)"
fill="#000000" stroke="none">
<path d="M120 510 c-70 -17 -84 -64 -79 -264 4 -139 17 -171 75 -189 44 -15
491 -13 535 1 58 20 64 42 64 233 0 236 10 229 -340 228 -121 -1 -236 -5 -255
-9z m289 -176 c44 -25 81 -48 81 -49 0 -4 -170 -105 -176 -105 -2 0 -4 45 -4
100 0 55 4 100 9 100 4 0 45 -21 90 -46z"/>
<path d="M1805 502 c-3 -3 -5 -99 -5 -214 l0 -208 29 0 c16 0 31 5 33 12 3 8
11 7 28 -5 34 -24 55 -21 79 9 18 23 21 41 21 133 0 80 -4 112 -16 129 -18 26
-65 30 -88 7 -14 -14 -15 -8 -18 62 -3 77 -3 78 -30 79 -15 1 -30 -1 -33 -4z
m116 -189 c13 -34 6 -170 -9 -185 -6 -6 -18 -8 -26 -5 -13 5 -16 24 -16 100 0
88 8 117 32 117 5 0 13 -12 19 -27z"/>
<path d="M800 483 c0 -4 17 -71 38 -148 28 -101 38 -156 36 -198 l-3 -57 35 0
34 0 0 65 c0 54 39 227 75 333 3 8 -7 12 -29 12 l-33 0 -23 -102 -23 -103 -22
100 c-21 100 -21 100 -53 103 -18 2 -32 0 -32 -5z"/>
<path d="M1400 465 c0 -21 5 -25 30 -25 l30 0 0 -180 0 -180 35 0 35 0 0 180
0 180 35 0 c31 0 35 3 33 25 -2 25 -3 25 -100 25 -98 0 -98 0 -98 -25z"/>
<path d="M1036 361 c-35 -39 -48 -159 -23 -231 21 -60 94 -79 143 -37 24 21
27 32 32 99 9 141 -14 188 -91 188 -30 0 -49 -6 -61 -19z m79 -132 c0 -97 -1
-104 -20 -104 -18 0 -20 8 -23 94 -2 61 1 98 9 107 26 31 34 7 34 -97z"/>
<path d="M1230 242 c0 -122 2 -141 18 -155 25 -23 58 -21 82 3 17 17 21 18 26
5 4 -8 17 -15 30 -15 l24 0 0 150 0 150 -35 0 -34 0 -3 -127 c-3 -120 -4 -128
-23 -128 -19 0 -20 8 -23 128 l-3 127 -29 0 -30 0 0 -138z"/>
<path d="M1580 242 c0 -122 2 -141 18 -155 25 -23 58 -21 82 3 17 17 21 18 26
5 4 -8 17 -15 30 -15 l24 0 0 151 0 150 -32 -3 -33 -3 -3 -123 c-2 -101 -5
-124 -18 -129 -27 -10 -34 18 -34 140 l0 117 -30 0 -30 0 0 -138z"/>
<path d="M2051 354 c-18 -23 -21 -41 -21 -120 0 -51 5 -104 11 -117 33 -72
159 -53 159 24 0 24 -4 29 -25 29 -18 0 -26 -7 -31 -26 -5 -18 -12 -24 -28
-22 -17 2 -22 11 -24 46 l-3 42 55 0 56 0 0 63 c0 86 -16 107 -80 107 -41 0
-52 -4 -69 -26z m87 -67 c3 -45 2 -47 -22 -47 -23 0 -26 4 -26 34 0 47 9 68
29 64 11 -2 17 -16 19 -51z"/>
</g>
</svg>
