<?xml version="1.0" standalone="no"?>
<!DOCTYPE svg PUBLIC "-//W3C//DTD SVG 20010904//EN"
 "http://www.w3.org/TR/2001/REC-SVG-20010904/DTD/svg10.dtd">
<svg version="1.0" xmlns="http://www.w3.org/2000/svg"
 width="204.000000pt" height="192.000000pt" viewBox="0 0 204.000000 192.000000"
 preserveAspectRatio="xMidYMid meet">

<g transform="translate(0.000000,192.000000) scale(0.100000,-0.100000)"
fill="#000000" stroke="none">
<path d="M638 1579 c-102 -4 -219 -12 -259 -19 -137 -21 -197 -77 -225 -210
-33 -160 -33 -620 0 -780 27 -130 88 -188 216 -209 36 -6 197 -16 357 -22 308
-12 808 -1 943 22 128 21 189 79 216 209 33 160 33 620 0 780 -27 130 -88 189
-218 209 -158 26 -657 35 -1030 20z m377 -449 c44 -26 126 -73 182 -106 57
-32 103 -61 103 -64 0 -3 -46 -32 -103 -64 -56 -33 -138 -80 -182 -106 -44
-26 -101 -59 -127 -74 l-48 -27 0 271 0 271 48 -27 c26 -15 83 -48 127 -74z"/>
</g>
</svg>
